
<svg version="1.0" xmlns="http://www.w3.org/2000/svg"
 width="300.000000pt" height="300.000000pt" viewBox="0 0 300.000000 300.000000"
 preserveAspectRatio="xMidYMid meet">
<metadata>
Created by potrace 1.10, written by Peter Selinger 2001-2011
</metadata>
<g transform="translate(0.000000,300.000000) scale(0.100000,-0.100000)"
fill="#000000" stroke="none">
<path d="M150 1545 l0 -425 155 0 c97 0 155 4 155 10 0 6 -57 10 -150 10
l-150 0 0 410 0 410 1340 0 1340 0 0 -410 0 -410 -150 0 c-93 0 -150 -4 -150
-10 0 -6 58 -10 155 -10 l155 0 0 425 0 425 -1350 0 -1350 0 0 -425z"/>
<path d="M995 1660 c-29 -33 -24 -79 14 -109 106 -86 106 -87 96 -118 -9 -23
-17 -29 -47 -31 -28 -2 -40 2 -52 20 -9 12 -16 33 -16 45 0 13 -4 23 -10 23
-5 0 -10 -22 -10 -49 0 -54 -6 -50 87 -54 55 -2 83 23 83 73 0 40 -15 58 -87
105 -33 21 -43 34 -43 54 0 33 17 51 45 51 25 0 55 -29 55 -53 0 -9 5 -19 10
-22 6 -4 10 12 10 42 0 34 -3 44 -10 33 -7 -12 -12 -12 -22 -2 -20 20 -82 15
-103 -8z"/>
<path d="M1222 1652 c-52 -49 -65 -150 -26 -210 8 -13 29 -31 46 -42 l31 -19
-24 -6 c-14 -3 -31 -5 -38 -3 -8 2 -16 -3 -18 -11 -4 -10 2 -12 24 -7 20 5 45
0 77 -14 66 -28 116 -26 146 5 27 28 20 47 -8 22 -19 -18 -81 -21 -137 -7 -32
7 -29 9 37 30 99 30 130 180 53 257 -29 29 -40 33 -83 33 -41 0 -55 -5 -80
-28z m132 -12 c45 -54 43 -173 -5 -221 -25 -25 -73 -25 -98 0 -47 47 -49 168
-4 222 33 39 73 39 107 -1z"/>
<path d="M1592 1646 c-37 -34 -37 -35 -37 -114 0 -71 3 -83 24 -106 14 -15 42
-32 63 -38 32 -10 45 -9 75 6 29 14 38 15 44 4 5 -8 9 10 9 45 0 31 5 57 10
57 6 0 10 3 10 8 0 4 -23 7 -50 8 -28 1 -50 -3 -50 -7 0 -5 9 -9 20 -9 17 0
20 -7 20 -44 0 -48 -9 -56 -61 -56 -33 0 -66 28 -75 65 -3 14 -4 55 -2 92 4
57 8 69 32 89 47 41 111 23 132 -37 l12 -34 1 37 c1 20 4 43 7 52 3 9 1 16 -5
16 -6 0 -11 -7 -11 -16 0 -14 -2 -14 -22 0 -12 9 -42 16 -65 16 -35 0 -50 -6
-81 -34z"/>
<path d="M1810 1670 c0 -6 7 -10 15 -10 13 0 15 -21 15 -125 0 -108 -2 -125
-17 -134 -14 -8 -3 -10 42 -10 46 0 55 2 38 9 -22 9 -23 14 -23 135 l0 125 33
0 c42 0 57 -15 57 -60 0 -43 -15 -60 -52 -60 -15 0 -28 -4 -28 -10 0 -5 11
-10 24 -10 31 0 44 -17 52 -68 8 -49 35 -75 67 -63 12 4 23 14 26 22 4 12 2
12 -12 1 -22 -19 -33 -9 -42 35 -9 51 -22 73 -42 73 -12 0 -7 8 16 28 40 33
44 73 12 105 -18 18 -35 22 -101 24 -46 1 -80 -2 -80 -7z"/>
<path d="M724 1159 c-4 -7 4 -20 17 -31 l24 -20 -22 5 c-13 3 -23 1 -23 -5 0
-14 53 -5 58 10 2 7 -5 16 -17 19 -12 3 -21 10 -21 15 0 5 9 6 20 3 11 -4 20
-2 20 4 0 15 -47 14 -56 0z"/>
<path d="M847 1163 c-20 -19 -5 -53 28 -69 20 -9 39 -13 43 -9 4 4 2 10 -5 12
-9 3 -10 9 -1 23 9 14 9 22 -1 34 -14 16 -52 22 -64 9z m51 -26 c4 -22 -27
-35 -38 -16 -10 15 7 42 24 36 6 -2 12 -11 14 -20z"/>
<path d="M1069 1154 c-18 -21 0 -48 35 -52 21 -3 26 1 26 19 0 22 0 22 -14 3
-11 -15 -17 -16 -27 -7 -18 18 -3 46 21 38 11 -4 20 -2 20 4 0 17 -46 13 -61
-5z"/>
<path d="M1200 1135 c0 -34 14 -47 23 -22 3 8 9 7 19 -6 12 -17 14 -15 15 22
2 39 1 41 -28 41 -27 0 -29 -3 -29 -35z"/>
<path d="M1337 1135 l-17 -35 25 6 c15 4 32 1 40 -6 20 -17 20 1 0 40 -20 39
-28 38 -48 -5z"/>
<path d="M1460 1135 c0 -35 1 -36 33 -33 28 3 32 6 32 33 0 27 -4 30 -32 33
-32 3 -33 2 -33 -33z m49 16 c17 -11 7 -41 -14 -41 -9 0 -15 9 -15 25 0 27 6
30 29 16z"/>
<path d="M1602 1138 c2 -26 8 -34 27 -36 13 -2 28 2 32 10 12 18 11 58 -1 58
-5 0 -10 -13 -10 -30 0 -20 -5 -30 -15 -30 -10 0 -15 10 -15 30 0 17 -5 30
-11 30 -6 0 -9 -14 -7 -32z"/>
<path d="M1742 1137 c-15 -42 -15 -54 0 -39 15 15 48 16 48 0 0 -6 3 -9 6 -5
9 9 -18 77 -31 77 -6 0 -16 -15 -23 -33z"/>
<path d="M1868 1163 c6 -2 12 -18 12 -34 0 -16 5 -29 10 -29 6 0 10 13 10 29
0 16 6 32 13 34 6 3 -4 5 -23 5 -19 0 -29 -2 -22 -5z"/>
<path d="M1980 1135 c0 -19 5 -35 10 -35 6 0 10 16 10 35 0 19 -4 35 -10 35
-5 0 -10 -16 -10 -35z"/>
<path d="M2070 1150 c-15 -28 4 -52 39 -48 22 2 26 8 26 33 0 25 -4 31 -27 33
-19 2 -30 -3 -38 -18z m50 -5 c13 -16 6 -35 -15 -35 -18 0 -28 17 -21 35 7 19
20 19 36 0z"/>
<path d="M2210 1135 c0 -19 5 -35 11 -35 6 0 8 9 4 23 l-6 22 20 -22 c27 -32
41 -28 41 12 0 38 -20 50 -21 13 l0 -23 -16 23 c-22 32 -33 27 -33 -13z"/>
<path d="M1235 1025 c4 -11 10 -30 12 -42 3 -13 8 -23 12 -23 10 1 39 70 29
70 -5 0 -11 -7 -15 -16 -5 -14 -9 -13 -25 7 -17 20 -19 21 -13 4z"/>
<path d="M1495 1029 c-16 -4 -23 -7 -14 -8 11 -1 14 -9 11 -31 -3 -18 0 -30 7
-30 6 0 11 13 11 29 0 16 6 31 13 34 23 8 2 13 -28 6z"/>
<path d="M1620 1031 c-20 -5 -25 -12 -25 -38 0 -30 2 -33 30 -32 23 1 25 3 8
6 -13 2 -23 8 -23 13 0 5 10 11 23 13 l22 4 -22 2 c-28 1 -31 21 -3 21 11 0
20 5 20 10 0 6 -1 9 -2 9 -2 -1 -14 -4 -28 -8z"/>
<path d="M1115 1020 c-3 -5 3 -15 15 -22 26 -16 26 -31 0 -23 -11 4 -20 2 -20
-4 0 -15 47 -14 56 0 4 7 -3 20 -17 29 l-23 18 25 5 c23 4 23 4 -3 6 -15 0
-30 -3 -33 -9z"/>
<path d="M1360 1015 c0 -9 7 -18 15 -21 23 -9 18 -26 -6 -19 -15 5 -19 4 -15
-4 4 -6 18 -11 32 -11 17 0 24 5 24 20 0 11 -6 20 -14 20 -8 0 -18 5 -22 12
-5 8 0 9 14 6 12 -4 22 -2 22 3 0 5 -11 9 -25 9 -16 0 -25 -6 -25 -15z"/>
<path d="M1720 996 c0 -20 4 -36 9 -36 5 0 7 10 3 22 -4 15 -2 19 7 13 9 -5
12 -2 9 10 -6 36 -28 28 -28 -9z"/>
<path d="M1765 1004 c-9 -14 -14 -29 -10 -32 3 -4 10 0 15 8 8 13 10 12 10 -2
0 -10 5 -18 10 -18 6 0 10 16 10 35 0 42 -11 45 -35 9z"/>
</g>
</svg>
